# xmcd
#
# Track frame offsets:
#	150
#	13442
#	25773
#	40234
#	53394
#	66618
#	79324
#	94803
#	110871
#	124433
#	141314
#	156036
#	169087
#	185970
#	203112
#
# Disc length: 2908 seconds
#
# Revision: 1
# Processed by: cddbd v1.5.2PL0 Copyright (c) Steve Scherf et al.
# Submitted via: audiograbber 1.83.01
#
DISCID=e20b5a0f
DTITLE=Bandeirante and Zé Batista - Rede na Varanda
DYEAR=2006
DGENRE=Country
TTITLE0=Enchendo a Cara (part. Teodoro)
TTITLE1=Eu Tô Maluco
TTITLE2=Rede na Varanda
TTITLE3=Mulher Vampira
TTITLE4=Ela Chora Toda Hora
TTITLE5=Namorar Nóis Namora
TTITLE6=Eternamente Irei Te Amar
TTITLE7=A Bailarina
TTITLE8=Ela Fala Demais
TTITLE9=Não é de Mim Que Você Gosta
TTITLE10=Meto Pé na Cara Dele
TTITLE11=Pinta de Fazendeiro
TTITLE12=Anjo Negro
TTITLE13=Vanerão do Cachaceiro
TTITLE14=Fuscão Preto
EXTD=
EXTT0=
EXTT1=
EXTT2=
EXTT3=
EXTT4=
EXTT5=
EXTT6=
EXTT7=
EXTT8=
EXTT9=
EXTT10=
EXTT11=
EXTT12=
EXTT13=
EXTT14=
PLAYORDER=
